# xmcd CD database file
#
# Track frame offsets:
#	150
#	16329
#	38504
#	56226
#	74528
#	97850
#	118302
#	136136
#	155961
#	166510
#	185912
#
# Disc length: 2780 seconds
#
# Revision: 3
# Processed by: cddbd v1.5.2PL0 Copyright (c) Steve Scherf et al.
# Submitted via: CDex 1.70beta3
#
DISCID=960ada0b
DTITLE=??? - LOVE PUNCH
DYEAR=2004
DGENRE=Blues
TTITLE0=??? - pretty voice
TTITLE1=??? - ?????
TTITLE2=??? - ?????
TTITLE3=??? - GIRLY
TTITLE4=??? - ?????????
TTITLE5=??? - ?????
TTITLE6=??? - ????????
TTITLE7=??? - ???????
TTITLE8=??? - ???
TTITLE9=??? - ????
TTITLE10=??? - Always Together
EXTD=YEAR: 2004
EXTT0=
EXTT1=
EXTT2=
EXTT3=
EXTT4=
EXTT5=
EXTT6=
EXTT7=
EXTT8=
EXTT9=
EXTT10=
PLAYORDER=
